<svg width="142" height="42" viewBox="0 0 142 42" xmlns="http://www.w3.org/2000/svg"><path d="m15.73 27.24 3.77-3.88 4.29 3.88h7.34L19.45 16 7.87 27.24h7.86Z"/><path d="m26.52 9.2-5.56 5.56 3.67 3.7 1.89-1.85 10.31 10.08a16.54 16.54 0 0 1-15.5 10.55C12.2 37.24 4.8 29.97 4.8 21A16.45 16.45 0 0 1 21.38 4.76c8.1 0 14.89 5.79 16.25 13.33l5 5.18A20.67 20.67 0 0 0 36.5 6.16 21.43 21.43 0 0 0 21.37 0 21.35 21.35 0 0 0 6.26 6.15 20.59 20.59 0 0 0 0 21c0 5.64 2.21 10.87 6.26 14.85A21.43 21.43 0 0 0 21.38 42c5.7 0 11.07-2.17 15.12-6.15a20.46 20.46 0 0 0 5.28-8.56c.19-.55.33-1.16.47-1.71l-4.33-4.49L26.52 9.2ZM60.41 13.5h3.15l-1.72 8.46h5.3l-.5 2.45h-8.45L60.4 13.5ZM70.1 13.5h3.15L71.03 24.4h-3.15L70.1 13.5ZM78.14 15.88l-.5 2.4h4.91l-.49 2.39h-4.89l-.76 3.74h-3.15L75.5 13.5h8.7l-.5 2.4h-5.55ZM88.28 15.88l-.36 1.84h4.93l-.46 2.31h-4.95l-.4 2h5.83l-.5 2.38h-8.92l2.23-10.92h8.7l-.5 2.4h-5.6ZM98.2 15.94H94.8l.5-2.45h9.97l-.51 2.45h-3.4l-1.73 8.47h-3.15l1.73-8.47ZM110.05 24.63c-1.12 0-2.1-.2-2.94-.6a4.6 4.6 0 0 1-1.92-1.7 4.69 4.69 0 0 1-.66-2.5 6.22 6.22 0 0 1 3.34-5.7 7.58 7.58 0 0 1 3.6-.85c1.12 0 2.1.2 2.92.6a4.47 4.47 0 0 1 2.6 4.2c0 1.25-.3 2.37-.89 3.37-.58 1-1.4 1.78-2.46 2.34a7.48 7.48 0 0 1-3.59.84Zm.27-2.56a3.31 3.31 0 0 0 3.07-1.88 4.3 4.3 0 0 0 .43-1.92 2.3 2.3 0 0 0-.7-1.77 2.63 2.63 0 0 0-1.92-.67 3.3 3.3 0 0 0-3.07 1.9 4.2 4.2 0 0 0-.43 1.91c0 .74.23 1.33.69 1.78.46.43 1.1.65 1.93.65ZM122.9 24.63c-.97 0-1.8-.16-2.5-.47a3.62 3.62 0 0 1-1.6-1.37 3.86 3.86 0 0 1-.56-2.09c0-.33.05-.72.13-1.15l1.24-6.06h3.14l-1.22 6c-.06.32-.1.6-.1.87 0 1.14.62 1.71 1.85 1.71.66 0 1.19-.2 1.57-.59.4-.4.68-1.07.87-1.98l1.23-6h3.1l-1.26 6.19c-.68 3.3-2.64 4.94-5.9 4.94ZM141.42 16.97c0 1-.27 1.86-.81 2.6a4.62 4.62 0 0 1-2.28 1.57l1.9 3.27h-3.3l-1.64-2.9h-1.6l-.58 2.9h-3.14l2.22-10.92h4.75c1.42 0 2.52.31 3.3.92a3.06 3.06 0 0 1 1.18 2.56Zm-3.18.3c0-.45-.15-.78-.46-1-.3-.23-.74-.34-1.29-.34h-1.65l-.67 3.2h1.88c.7 0 1.24-.17 1.62-.49.38-.32.57-.78.57-1.37ZM60.28 34.7c-.38 0-.73-.08-1.04-.24a1.9 1.9 0 0 1-.73-.7 1.9 1.9 0 0 1-.26-.98 1.87 1.87 0 0 1 .99-1.68c.31-.17.66-.26 1.04-.26s.73.09 1.03.25a1.85 1.85 0 0 1 1 1.68 1.87 1.87 0 0 1-1 1.68c-.3.17-.65.26-1.03.26Zm0-.35c.3 0 .58-.07.83-.2a1.51 1.51 0 0 0 .79-1.38c0-.3-.07-.56-.21-.8a1.46 1.46 0 0 0-.58-.56c-.25-.14-.52-.2-.83-.2-.3 0-.58.06-.83.2a1.5 1.5 0 0 0-.8 1.36c0 .3.07.57.21.81.15.24.34.43.59.57.25.13.53.2.83.2ZM64.69 31.8c.27 0 .52.06.74.18.22.12.4.3.52.51.12.22.18.47.18.76 0 .28-.06.54-.18.76-.13.22-.3.39-.52.51-.22.12-.47.18-.74.18a1.23 1.23 0 0 1-1.1-.56v1.59h-.4v-3.91h.38v.56c.11-.18.27-.33.46-.43.2-.1.41-.15.66-.15Zm-.03 2.56c.2 0 .39-.05.55-.14.17-.1.3-.22.39-.4.1-.16.14-.36.14-.57 0-.22-.05-.41-.14-.58a.99.99 0 0 0-.39-.4 1.1 1.1 0 0 0-.55-.14c-.2 0-.4.05-.56.15-.16.09-.29.22-.38.4-.1.16-.14.35-.14.57 0 .21.04.4.14.58.1.17.22.3.38.4.17.08.35.13.56.13ZM69.03 32.16h-1.66v2.51h-.4v-2.85h2.06v.34ZM70.6 31.8c.38 0 .67.1.87.28.2.19.3.46.3.83v1.76h-.37v-.44a.9.9 0 0 1-.4.35c-.16.08-.36.12-.6.12-.32 0-.58-.08-.77-.23a.73.73 0 0 1-.29-.6c0-.24.09-.44.26-.59.19-.14.47-.22.86-.22h.92v-.17c0-.25-.07-.43-.2-.56-.15-.13-.35-.2-.62-.2a1.54 1.54 0 0 0-.97.34l-.17-.29c.14-.12.32-.21.53-.28.2-.07.42-.1.65-.1Zm-.14 2.6c.22 0 .41-.05.57-.15.16-.1.28-.25.35-.43v-.47h-.9c-.5 0-.75.17-.75.51 0 .17.06.3.19.4.13.09.3.14.54.14ZM72.82 31.82h.4v1.26h1.82v-1.26h.4v2.85h-.4v-1.25h-1.83v1.25h-.39v-2.85ZM76.55 31.82h.39v2.27l1.94-2.27h.35v2.85h-.4v-2.26l-1.93 2.26h-.35v-2.85ZM81.7 33.19c.21.04.37.13.48.24.11.12.17.26.17.42 0 .17-.06.32-.17.45-.12.13-.28.23-.47.3a2.24 2.24 0 0 1-1.28.02c-.2-.06-.38-.15-.53-.27l.13-.28a1.82 1.82 0 0 0 1 .3c.27 0 .49-.04.66-.14.17-.1.26-.24.26-.4a.39.39 0 0 0-.21-.36 1.09 1.09 0 0 0-.58-.13h-.5v-.28h.48c.22 0 .4-.04.53-.12.13-.09.2-.2.2-.33 0-.16-.08-.27-.23-.36a1.13 1.13 0 0 0-.58-.13c-.31 0-.62.08-.93.23l-.1-.3c.34-.17.7-.26 1.07-.26.22 0 .42.03.6.1.17.06.31.15.41.26.1.12.16.25.16.4 0 .15-.05.28-.16.39-.1.11-.23.2-.4.25ZM84.24 31.8c.38 0 .67.1.87.28.2.19.3.46.3.83v1.76h-.37v-.44a.9.9 0 0 1-.39.35c-.17.08-.37.12-.6.12-.33 0-.59-.08-.78-.23a.73.73 0 0 1-.29-.6c0-.24.1-.44.27-.59.18-.14.46-.22.85-.22h.93v-.17c0-.25-.07-.43-.21-.56-.14-.13-.35-.2-.62-.2a1.54 1.54 0 0 0-.96.34l-.18-.29c.15-.12.32-.21.53-.28.2-.07.42-.1.65-.1Zm-.14 2.6c.23 0 .41-.05.57-.15.16-.1.28-.25.36-.43v-.47h-.92c-.5 0-.74.17-.74.51 0 .17.06.3.2.4.12.09.3.14.53.14ZM89.49 34.34v1.05h-.37v-.72h-2.66v-2.85h.4v2.52h1.77v-2.52h.39v2.52h.47ZM90.24 31.82h.4v2.27l1.93-2.27h.35v2.85h-.4v-2.26l-1.93 2.26h-.35v-2.85ZM96.27 31.82v2.85h-.36v-.94H94.9l-.67.94h-.43l.73-1a.98.98 0 0 1-.52-.3.86.86 0 0 1-.18-.57c0-.32.1-.56.33-.73.22-.17.52-.25.9-.25h1.22Zm-2.06.99c0 .42.28.63.83.63h.87v-1.28h-.85c-.56 0-.85.22-.85.65ZM101.44 31.82v2.85h-.39v-2.5h-1.82v2.5h-.4v-2.85h2.61ZM103.76 34.7a1.4 1.4 0 0 1-1.48-1.45c0-.28.06-.53.2-.75.12-.22.3-.4.52-.52.23-.12.48-.18.76-.18s.53.06.76.18c.22.13.4.3.52.52.13.22.2.47.2.75s-.07.52-.2.75c-.13.22-.3.39-.52.52-.23.12-.48.18-.76.18Zm0-.34c.2 0 .39-.05.55-.14.17-.1.3-.22.39-.4.09-.16.14-.36.14-.57 0-.22-.05-.41-.14-.58a.95.95 0 0 0-.39-.4c-.16-.09-.34-.14-.55-.14-.2 0-.4.05-.56.15a1 1 0 0 0-.39.39c-.09.17-.13.36-.13.58 0 .21.04.4.13.58.1.17.23.3.4.4.16.08.34.13.55.13ZM107.79 34.67l-.93-1.19-.92 1.2h-.44l1.14-1.47-1.09-1.39h.44l.88 1.12.87-1.12h.43l-1.1 1.39 1.16 1.46h-.44ZM109.97 34.7a1.4 1.4 0 0 1-1.48-1.45c0-.28.07-.53.2-.75.13-.22.3-.4.53-.52.22-.12.47-.18.75-.18s.54.06.76.18a1.46 1.46 0 0 1 .72 1.26c0 .29-.07.53-.2.76-.12.22-.3.39-.52.52-.22.12-.48.18-.76.18Zm0-.34c.21 0 .4-.05.56-.14.16-.1.3-.22.38-.4.1-.16.14-.36.14-.57 0-.22-.05-.41-.14-.58a.95.95 0 0 0-.38-.4c-.17-.09-.35-.14-.56-.14-.2 0-.39.05-.55.15a1 1 0 0 0-.4.39c-.08.17-.13.36-.13.58 0 .21.05.4.14.58.1.17.22.3.39.4.16.08.35.13.55.13ZM115.1 34.34v1.02h-.37v-.69h-2.6v.7h-.37v-1.03h.17c.2-.01.33-.15.4-.43.07-.27.11-.65.14-1.13l.04-.96h2.14v2.52h.45Zm-2.27-1.54c-.02.4-.05.74-.1 1-.06.26-.15.44-.28.54h1.8v-2.18h-1.39l-.03.64ZM117.07 34.7a1.4 1.4 0 0 1-1.48-1.45c0-.28.06-.53.19-.75.13-.22.3-.4.53-.52.22-.12.48-.18.76-.18s.53.06.75.18c.23.13.4.3.53.52.13.22.2.47.2.75s-.07.52-.2.75c-.13.22-.3.39-.53.52-.22.12-.47.18-.75.18Zm0-.34c.2 0 .39-.05.55-.14.17-.1.3-.22.39-.4.09-.16.13-.36.13-.57 0-.22-.04-.41-.13-.58a.95.95 0 0 0-.39-.4c-.16-.09-.35-.14-.55-.14-.2 0-.4.05-.56.15a1 1 0 0 0-.39.39c-.09.17-.14.36-.14.58 0 .21.05.4.14.58.1.17.23.3.39.4.16.08.35.13.56.13ZM121.23 33.2c.4.09.6.32.6.7 0 .25-.1.44-.29.57-.19.14-.47.2-.84.2h-1.32v-2.85h1.28c.33 0 .6.06.78.19.19.13.28.3.28.54 0 .16-.04.3-.13.4-.09.11-.2.2-.36.25Zm-1.47-.11h.88c.22 0 .39-.04.5-.13.13-.08.2-.2.2-.36a.4.4 0 0 0-.2-.36.92.92 0 0 0-.5-.12h-.88v.97Zm.92 1.28c.25 0 .44-.04.57-.12.12-.08.19-.2.19-.37 0-.17-.06-.3-.18-.38-.11-.08-.29-.12-.54-.12h-.96v.99h.92ZM126.04 33.2c.4.09.59.32.59.7 0 .25-.1.44-.28.57-.2.14-.47.2-.84.2h-1.32v-2.85h1.28c.33 0 .59.06.78.19.19.13.28.3.28.54 0 .16-.05.3-.13.4-.09.11-.2.2-.36.25Zm-1.47-.11h.87c.23 0 .4-.04.52-.13.12-.08.18-.2.18-.36a.4.4 0 0 0-.19-.36.92.92 0 0 0-.5-.12h-.88v.97Zm.92 1.28c.25 0 .44-.04.56-.12.13-.08.2-.2.2-.37 0-.17-.06-.3-.18-.38-.11-.08-.3-.12-.54-.12h-.96v.99h.92ZM131.05 32.16h-1.66v2.51h-.4v-2.85h2.06v.34ZM132.68 34.7a1.4 1.4 0 0 1-1.48-1.45c0-.28.06-.53.2-.75.12-.22.3-.4.52-.52.23-.12.48-.18.76-.18s.53.06.76.18a1.46 1.46 0 0 1 .72 1.26c0 .29-.07.53-.2.76-.12.22-.3.39-.52.52-.23.12-.48.18-.76.18Zm0-.34c.2 0 .39-.05.55-.14.17-.1.3-.22.39-.4.09-.16.14-.36.14-.57 0-.22-.05-.41-.14-.58a.95.95 0 0 0-.39-.4c-.16-.09-.34-.14-.55-.14-.2 0-.4.05-.56.15a.99.99 0 0 0-.38.39c-.1.17-.14.36-.14.58 0 .21.04.4.14.58.09.17.22.3.38.4.17.08.35.13.56.13ZM136.49 31.8c.27 0 .52.06.74.18.22.12.4.3.52.51.12.22.19.47.19.76 0 .28-.07.54-.2.76-.12.22-.29.39-.51.51-.22.12-.46.18-.74.18a1.22 1.22 0 0 1-1.1-.56v1.59h-.4v-3.91h.38v.56c.12-.18.27-.33.46-.43.2-.1.42-.15.66-.15Zm-.03 2.56c.2 0 .39-.05.55-.14.17-.1.3-.22.4-.4.09-.16.13-.36.13-.57 0-.22-.04-.41-.14-.58a.98.98 0 0 0-.39-.4 1.1 1.1 0 0 0-.55-.14c-.2 0-.39.05-.56.15-.16.09-.29.22-.38.4-.1.16-.14.35-.14.57 0 .21.05.4.14.58.1.17.22.3.38.4.17.08.36.13.56.13ZM140 32.83c.37 0 .64.08.83.24.2.15.3.38.3.67 0 .3-.11.54-.32.7-.2.16-.5.24-.88.24h-1.15v-2.86h.4v1h.82Zm1.6-1.01h.4v2.85h-.4v-2.85Zm-1.7 2.57c.28 0 .48-.05.61-.16.14-.11.21-.28.21-.49 0-.2-.06-.36-.2-.47-.14-.1-.34-.15-.61-.15l-.74-.01v1.27h.74Z"/></svg>
