<svg width="9" height="16" viewBox="0 0 9 16" fill="none" xmlns="http://www.w3.org/2000/svg"><path d="M4.5 2.42c.92 0 1.66.77 1.66 1.71s-.74 1.7-1.66 1.7c-.92 0-1.66-.76-1.66-1.7s.74-1.71 1.66-1.71Zm0 5.84a4.08 4.08 0 0 0 4.01-4.13C8.51 1.85 6.71 0 4.5 0s-4 1.85-4 4.13 1.79 4.13 4 4.13Zm1.62 3.37c.82-.2 1.6-.53 2.33-1 .55-.35.71-1.1.37-1.66a1.15 1.15 0 0 0-1.62-.39 4.97 4.97 0 0 1-5.4 0 1.15 1.15 0 0 0-1.62.39c-.34.56-.18 1.3.37 1.66.73.47 1.51.8 2.33 1l-2.24 2.3a1.24 1.24 0 0 0 0 1.71 1.16 1.16 0 0 0 1.66 0l2.2-2.26 2.2 2.26c.46.48 1.2.48 1.66 0 .46-.47.46-1.23 0-1.7l-2.24-2.31Z" fill="#2D383F"/></svg>