<svg xmlns="http://www.w3.org/2000/svg" xmlns:xlink="http://www.w3.org/1999/xlink"><symbol id="sprite-arrow-right" fill="none" viewBox="0 0 9 14"><path stroke="#2D383F" stroke-width="2" d="m1 13 6-6-6-6"/></symbol><use xlink:href="#sprite-arrow-right" width="9" height="14"/><view id="sprite-arrow-right-view" viewBox="0 0 9 14"/><symbol id="sprite-boots" fill="none" viewBox="0 0 25 25"><path fill="#fff" d="M0 0h25v25h-25z"/><path fill="#2D383F" d="M24.64 16.27c.78-2.44.14-5.2-.54-7.11a.4.4 0 0 0-.06-.2 17 17 0 0 0-.63-1.5.9.9 0 0 0 .56-.83v-3.7a.9.9 0 0 0-.89-.88h-10.9a.44.44 0 0 0-.45.47c.15 2.66-.04 4.47-.6 5.74l-.04.04v.07a5 5 0 0 1-.86 1.26l-.04.02v.03q-.79.75-1.77 1.2a31 31 0 0 1-3.51 1.3l-.23.08c-4.15 1.38-4.69 3.87-4.68 5.13v3.22q0 .24.21.38a13 13 0 0 0 3.27 1.4.44.44 0 0 0 .56-.44v-.1h.65v.44a.44.44 0 0 0 .37.45q.59.09 1.15.14a.44.44 0 0 0 .48-.44v-.56h.66v.63c0 .24.2.44.44.44q.55.01 1.15-.05a.44.44 0 0 0 .4-.45v-.57h.66v.39a.44.44 0 0 0 .51.44 15 15 0 0 0 2.4-.57l.07-.03c3.11-1.78 5.08-.32 5.16-.25q.12.09.27.09h.55a.44.44 0 0 0 .45-.45v-.75h.63v.74c0 .25.2.45.44.45h1.43a.44.44 0 0 0 .45-.44v-.75h.65v.74c0 .25.2.45.45.45h1.1a.44.44 0 0 0 .44-.44v-4.79a.44.44 0 0 0-.36-.44m-10.53-13.32h8.95v3.67h-8.95zm-5.58 8.85v.02q.55.45 1 .98a1 1 0 0 0-.11.45.85.85 0 1 0 .92-.84q-.42-.58-.95-1.05.6-.34 1.11-.8.65.61 1.2 1.3a.85.85 0 1 0 .8-.56h-.11q-.59-.74-1.27-1.38.32-.4.56-.83 1.03.53 1.99 1.2a.86.86 0 1 0 .47-.77 20 20 0 0 0-2.09-1.23c.49-1.29.7-3 .6-5.33h.58v3.68c0 .49.4.89.89.89h8.31q.19.36.53 1.17h-.18a4.88 4.88 0 0 0-2.88 8.8c-3.6.95-9 2.07-13.54 1.78.84-3.35-.16-5.41-.81-6.32a30 30 0 0 0 2.98-1.16m-3.88 1.41c.48.57 1.73 2.46.82 5.95a11 11 0 0 1-4.56-1.38l-.03-.3v-.04c-.04-.94.32-2.99 3.77-4.23m19.25 7.84v-.74a.44.44 0 0 0-.44-.44h-1.54a.44.44 0 0 0-.45.44v.74h-.54v-.74a.44.44 0 0 0-.45-.44h-1.53a.44.44 0 0 0-.44.44v.72c-.6-.38-2.81-1.47-5.94.28a14 14 0 0 1-1.7.44v-.3a.44.44 0 0 0-.44-.45h-1.53a.44.44 0 0 0-.45.44v.61h-.22v-.62a.44.44 0 0 0-.45-.44h-1.54a.44.44 0 0 0-.44.44v.53l-.23-.03v-.5a.44.44 0 0 0-.44-.44h-1.54a.44.44 0 0 0-.45.39q-1.18-.39-2.26-1.02v-1.59c1.93 1.03 4.44 1.42 7.1 1.42 7.08 0 15.17-2.71 16.13-3.04v3.9zm-.22-4.68c-.37.12-1.3.44-2.58.78a4 4 0 0 1 2.2-7.56v.01c.66 1.89 1.24 4.57.38 6.77"/><path fill="#2D383F" d="M15.82 3.48a1.3 1.3 0 1 0 0 2.59 1.3 1.3 0 0 0 0-2.59m0 1.7a.4.4 0 1 1 0-.8.4.4 0 0 1 0 .8"/></symbol><use xlink:href="#sprite-boots" width="25" height="25" y="14"/><view id="sprite-boots-view" viewBox="0 14 25 25"/><symbol id="sprite-equipment" fill="none" viewBox="0 0 22 20"><path fill="#0266C1" d="M21.6 13.54c.68-2.29.12-4.88-.47-6.68a.4.4 0 0 0-.06-.2 16 16 0 0 0-.55-1.4.8.8 0 0 0 .49-.77v-3.47c0-.46-.35-.84-.78-.84h-9.51c-.22 0-.4.19-.4.42v.02c.14 2.5-.03 4.2-.52 5.4l-.03.04v.06a4 4 0 0 1-.75 1.18l-.03.03v.02a6 6 0 0 1-1.55 1.13q-1.5.71-3.06 1.23l-.2.07c-3.62 1.29-4.1 3.63-4.09 4.81v3.03q0 .23.19.35a11 11 0 0 0 2.84 1.33c.21.06.42-.07.48-.3l.02-.12v-.1h.57v.42a.4.4 0 0 0 .32.42q.5.09 1 .13.17.01.3-.1a.4.4 0 0 0 .12-.31v-.53h.57v.6c0 .22.18.4.39.4q.48.01 1-.04c.2-.02.36-.2.36-.42v-.54h.57v.37c0 .23.16.42.38.42h.06a12 12 0 0 0 2.1-.54l.06-.03c2.71-1.67 4.43-.3 4.5-.24a.4.4 0 0 0 .24.09h.48c.21 0 .39-.19.39-.42v-.7h.55v.7c0 .22.17.4.39.4h1.25a.4.4 0 0 0 .38-.4v-.7h.58v.7c0 .22.17.4.38.4h.96a.4.4 0 0 0 .39-.4v-4.5a.4.4 0 0 0-.31-.42m-9.2-12.52h7.82v3.46h-7.81zm-4.86 8.32v.02q.48.42.88.93a1 1 0 0 0-.1.41c-.01.44.32.8.73.8s.74-.35.74-.79c0-.41-.29-.76-.67-.8a6 6 0 0 0-.84-.98 6 6 0 0 0 .98-.75q.56.57 1.04 1.23c-.13.41.07.87.46 1.01s.8-.07.94-.49-.07-.87-.45-1.01l-.25-.05h-.1q-.5-.69-1.1-1.3a5 5 0 0 0 .48-.78q.9.5 1.74 1.13c0 .44.33.8.74.8.41.01.75-.34.75-.79s-.32-.8-.74-.81a1 1 0 0 0-.34.08 17 17 0 0 0-1.82-1.16c.42-1.2.6-2.81.52-5h.5v3.45c0 .46.35.84.78.84h7.26q.16.34.46 1.1h-.16c-2.36.02-4.25 2.09-4.23 4.62 0 1.44.64 2.8 1.72 3.65-3.14.89-7.85 1.94-11.82 1.67.73-3.15-.14-5.09-.71-5.94a25 25 0 0 0 2.6-1.09m-3.38 1.33c.42.53 1.51 2.31.71 5.58a9 9 0 0 1-3.98-1.29l-.02-.29v-.03c-.03-.88.28-2.8 3.29-3.97m16.8 7.36v-.7c0-.22-.17-.41-.39-.41h-1.34c-.21 0-.39.19-.39.42v.7h-.47v-.7a.4.4 0 0 0-.4-.42h-1.33c-.21 0-.39.19-.39.42v.68c-.52-.36-2.45-1.39-5.18.25q-.73.26-1.48.42v-.29a.4.4 0 0 0-.39-.41h-1.34c-.2 0-.38.18-.38.41v.58h-.2v-.59c0-.23-.17-.42-.39-.42h-1.34c-.22 0-.39.2-.39.42v.5l-.2-.03v-.47c0-.23-.17-.42-.38-.42h-1.35a.4.4 0 0 0-.39.37 10 10 0 0 1-1.97-.95v-1.5c1.69.97 3.87 1.33 6.2 1.33 6.17 0 13.24-2.54 14.07-2.85v3.66zm-.19-4.4c-.33.12-1.14.42-2.26.74a3.9 3.9 0 0 1-1.62-5.01 3.5 3.5 0 0 1 3.09-2.12q.23 0 .45.03c.58 1.78 1.09 4.3.34 6.36"/><path fill="#0266C1" d="M13.9 1.53c-.63 0-1.13.54-1.13 1.21s.5 1.21 1.13 1.21 1.12-.54 1.12-1.2-.5-1.22-1.12-1.22m0 1.6c-.2 0-.36-.18-.36-.39s.16-.38.36-.38.35.17.35.38-.16.38-.35.38"/></symbol><use xlink:href="#sprite-equipment" width="22" height="20" y="39"/><view id="sprite-equipment-view" viewBox="0 39 22 20"/><symbol id="sprite-expertise" fill="none" viewBox="0 0 24 22"><path stroke="#0266C1" d="M19.3 20.82h-14.6m18.21-14.06-3.2 10.57h-15.43l-3.19-10.57 6.3 3.82 4.61-9.4 4.61 9.4z"/></symbol><use xlink:href="#sprite-expertise" width="24" height="22" y="59"/><view id="sprite-expertise-view" viewBox="0 59 24 22"/><symbol id="sprite-leaf" fill="none" viewBox="0 0 24 18"><path stroke="#0266C1" stroke-linecap="round" stroke-linejoin="round" d="M11.66 14.72a10.6 10.6 0 0 0-5.9-7.14 11 11 0 0 0-4.67-1.04c.1 2.21.91 4.36 2.37 6.13a11 11 0 0 0 8.47 3.97q-.04-.97-.27-1.92m0 0c-.6-2.56-2.18-4.8-4.38-6.28q.05-.33.13-.66a10.5 10.5 0 0 1 4.59-6.42 10.5 10.5 0 0 1 4.59 6.42l.13.66a10.5 10.5 0 0 0-4.38 6.28m-.68 0q.23.96.27 1.91h.13a11 11 0 0 0 2.71-.32l.02-.02q-1.33.33-2.72.35m.27-1.92a10.6 10.6 0 0 1 5.9-7.14 11 11 0 0 1 4.67-1.04 10.3 10.3 0 0 1-2.37 6.13 11 11 0 0 1-8.47 3.97m.27-1.92q-.23.95-.27 1.92"/></symbol><use xlink:href="#sprite-leaf" width="24" height="18" y="81"/><view id="sprite-leaf-view" viewBox="0 81 24 18"/><symbol id="sprite-level" fill="none" viewBox="0 0 12 12"><g stroke="#fff" stroke-linecap="round" stroke-miterlimit="16" clip-path="url(#a)"><path d="M10.9 11.46h-1.95v-10.92h1.96zm-3.92 0v-7.94h-1.96v7.93zm-3.93 0v-4.97h-1.96v4.97z"/></g><defs><clipPath id="a"><path fill="#fff" d="M0 0h12v12h-12z"/></clipPath></defs></symbol><use xlink:href="#sprite-level" width="12" height="12" y="99"/><view id="sprite-level-view" viewBox="0 99 12 12"/><symbol id="sprite-location" fill="none" viewBox="0 0 16 16"><path fill="#fff" d="M8.5 2a4.46 4.46 0 0 0-4.5 4.42q0 .95.4 1.8a28 28 0 0 0 3.91 5.7.25.25 0 0 0 .38 0 28 28 0 0 0 3.92-5.7 4 4 0 0 0 .39-1.8 4.46 4.46 0 0 0-4.5-4.42m0 6.71a2.3 2.3 0 0 1-2.34-2.3c0-1.26 1.05-2.29 2.34-2.29s2.34 1.03 2.34 2.3-1.05 2.3-2.34 2.3"/></symbol><use xlink:href="#sprite-location" width="16" height="16" y="111"/><view id="sprite-location-view" viewBox="0 111 16 16"/><symbol id="sprite-logo" viewBox="0 0 142 42"><path d="m15.73 27.24 3.77-3.88 4.29 3.88h7.34l-11.68-11.24-11.58 11.24z"/><path d="m26.52 9.2-5.56 5.56 3.67 3.7 1.89-1.85 10.31 10.08a16.5 16.5 0 0 1-15.5 10.55c-9.13 0-16.53-7.27-16.53-16.24a16.45 16.45 0 0 1 16.58-16.24c8.1 0 14.89 5.79 16.25 13.33l5 5.18a20.7 20.7 0 0 0-6.13-17.11 21.4 21.4 0 0 0-15.13-6.16 21.4 21.4 0 0 0-15.11 6.15 20.6 20.6 0 0 0-6.26 14.85 20.6 20.6 0 0 0 6.26 14.85 21.4 21.4 0 0 0 15.12 6.15c5.7 0 11.07-2.17 15.12-6.15a20.5 20.5 0 0 0 5.28-8.56c.19-.55.33-1.16.47-1.71l-4.33-4.49zm33.89 4.3h3.15l-1.72 8.46h5.3l-.5 2.45h-8.45zm9.69 0h3.15l-2.22 10.9h-3.15zm8.04 2.38-.5 2.4h4.91l-.49 2.39h-4.89l-.76 3.74h-3.15l2.24-10.91h8.7l-.5 2.4h-5.55Zm10.14 0-.36 1.84h4.93l-.46 2.31h-4.95l-.4 2h5.83l-.5 2.38h-8.92l2.23-10.92h8.7l-.5 2.4zm9.92.06h-3.4l.5-2.45h9.97l-.51 2.45h-3.4l-1.73 8.47h-3.15zm11.85 8.69q-1.68 0-2.94-.6a4.6 4.6 0 0 1-1.92-1.7 4.7 4.7 0 0 1-.66-2.5 6.2 6.2 0 0 1 3.34-5.7 7.6 7.6 0 0 1 3.6-.85q1.69 0 2.92.6a4.5 4.5 0 0 1 2.6 4.2 6.5 6.5 0 0 1-.89 3.37q-.87 1.5-2.46 2.34a7.5 7.5 0 0 1-3.59.84m.27-2.56a3.3 3.3 0 0 0 3.07-1.88 4 4 0 0 0 .43-1.92 2.3 2.3 0 0 0-.7-1.77 2.6 2.6 0 0 0-1.92-.67 3.3 3.3 0 0 0-3.07 1.9 4 4 0 0 0-.43 1.91q0 1.1.69 1.78.69.65 1.93.65m12.58 2.56q-1.45 0-2.5-.47a3.6 3.6 0 0 1-1.6-1.37 4 4 0 0 1-.56-2.09q0-.5.13-1.15l1.24-6.06h3.14l-1.22 6q-.1.47-.1.87 0 1.71 1.85 1.71 1 0 1.57-.59.6-.6.87-1.98l1.23-6h3.1l-1.26 6.19q-1.02 4.95-5.9 4.94Zm18.52-7.66q0 1.5-.81 2.6a4.6 4.6 0 0 1-2.28 1.57l1.9 3.27h-3.3l-1.64-2.9h-1.6l-.58 2.9h-3.14l2.22-10.92h4.75q2.13 0 3.3.92a3 3 0 0 1 1.18 2.56m-3.18.3q0-.67-.46-1a2 2 0 0 0-1.29-.34h-1.65l-.67 3.2h1.88q1.05 0 1.62-.49c.57-.49.57-.78.57-1.37m-77.96 17.43q-.57 0-1.04-.24a2 2 0 0 1-.73-.7 2 2 0 0 1-.26-.98 1.9 1.9 0 0 1 .99-1.68q.47-.26 1.04-.26c.57 0 .73.09 1.03.25a1.9 1.9 0 0 1 1 1.68 1.9 1.9 0 0 1-1 1.68q-.45.26-1.03.26Zm0-.35q.45 0 .83-.2a1.5 1.5 0 0 0 .79-1.38q0-.45-.21-.8a1.5 1.5 0 0 0-.58-.56q-.37-.2-.83-.2t-.83.2a1.5 1.5 0 0 0-.8 1.36q0 .45.21.81.22.36.59.57.38.2.83.2m4.41-2.55q.4 0 .74.18c.34.18.4.3.52.51q.18.33.18.76t-.18.76q-.2.33-.52.51c-.32.18-.47.18-.74.18a1.2 1.2 0 0 1-1.1-.56v1.59h-.4v-3.91h.38v.56q.17-.27.46-.43t.66-.15m-.03 2.56q.3 0 .55-.14t.39-.4.14-.57q0-.33-.14-.58a1 1 0 0 0-.39-.4 1 1 0 0 0-.55-.14q-.31 0-.56.15a1 1 0 0 0-.38.4q-.15.24-.14.57 0 .31.14.58.15.25.38.4.25.13.56.13m4.37-2.2h-1.66v2.51h-.4v-2.85h2.06zm1.57-.36q.57 0 .87.28t.3.83v1.76h-.37v-.44a1 1 0 0 1-.4.35q-.24.12-.6.12-.48 0-.77-.23a.7.7 0 0 1-.29-.6q0-.36.26-.59.28-.22.86-.22h.92v-.17q0-.37-.2-.56a1 1 0 0 0-.62-.2 1.5 1.5 0 0 0-.97.34l-.17-.29q.21-.18.53-.28.3-.1.65-.1m-.14 2.6q.33 0 .57-.15.24-.16.35-.43v-.47h-.9q-.75 0-.75.51 0 .25.19.4.19.14.54.14m2.36-2.58h.4v1.26h1.82v-1.26h.4v2.85h-.4v-1.25h-1.83v1.25h-.39zm3.73 0h.39v2.27l1.94-2.27h.35v2.85h-.4v-2.26l-1.93 2.26h-.35zm5.15 1.37a1 1 0 0 1 .48.24.6.6 0 0 1 .17.42q0 .26-.17.45-.18.2-.47.3a2.2 2.2 0 0 1-1.28.02q-.3-.09-.53-.27l.13-.28a2 2 0 0 0 1 .3q.4 0 .66-.14c.26-.14.26-.24.26-.4a.4.4 0 0 0-.21-.36 1 1 0 0 0-.58-.13h-.5v-.28h.48q.33 0 .53-.12.2-.14.2-.33 0-.23-.23-.36a1 1 0 0 0-.58-.13q-.46 0-.93.23l-.1-.3q.51-.26 1.07-.26.33 0 .6.1a1 1 0 0 1 .41.26q.16.18.16.4c0 .22-.05.28-.16.39q-.15.17-.4.25Zm2.54-1.39q.57 0 .87.28t.3.83v1.76h-.37v-.44a1 1 0 0 1-.39.35q-.25.12-.6.12-.5 0-.78-.23a.7.7 0 0 1-.29-.6q0-.36.27-.59t.85-.22h.93v-.17q0-.37-.21-.56c-.21-.19-.35-.2-.62-.2a1.5 1.5 0 0 0-.96.34l-.18-.29q.22-.18.53-.28.3-.1.65-.1m-.14 2.6q.34 0 .57-.15a.8.8 0 0 0 .36-.43v-.47h-.92q-.75 0-.74.51 0 .25.2.4.18.14.53.14m5.39-.06v1.05h-.37v-.72h-2.66v-2.85h.4v2.52h1.77v-2.52h.39v2.52zm.75-2.52h.4v2.27l1.93-2.27h.35v2.85h-.4v-2.26l-1.93 2.26h-.35zm6.03 0v2.85h-.36v-.94h-1.01l-.67.94h-.43l.73-1a1 1 0 0 1-.52-.3 1 1 0 0 1-.18-.57q0-.48.33-.73t.9-.25h1.22Zm-2.06.99q0 .63.83.63h.87v-1.28h-.85q-.84 0-.85.65m7.23-.99v2.85h-.39v-2.5h-1.82v2.5h-.4v-2.85zm2.32 2.88a1.4 1.4 0 0 1-1.48-1.45q0-.42.2-.75.19-.33.52-.52.34-.18.76-.18c.42 0 .53.06.76.18q.34.2.52.52.2.33.2.75c0 .42-.07.52-.2.75q-.2.33-.52.52a2 2 0 0 1-.76.18m0-.34q.3 0 .55-.14t.39-.4.14-.57q0-.33-.14-.58a1 1 0 0 0-.39-.4 1 1 0 0 0-.55-.14q-.31 0-.56.15a1 1 0 0 0-.39.39 1 1 0 0 0-.13.58q0 .31.13.58.15.25.4.4.24.13.55.13m4.03.31-.93-1.19-.92 1.2h-.44l1.14-1.47-1.09-1.39h.44l.88 1.12.87-1.12h.43l-1.1 1.39 1.16 1.46zm2.18.03a1.4 1.4 0 0 1-1.48-1.45q0-.42.2-.75s.3-.4.53-.52q.33-.18.75-.18c.42 0 .54.06.76.18a1.5 1.5 0 0 1 .72 1.26 1.5 1.5 0 0 1-.72 1.28q-.33.18-.76.18m0-.34q.32 0 .56-.14t.38-.4q.15-.25.14-.57 0-.33-.14-.58a1 1 0 0 0-.38-.4 1 1 0 0 0-.56-.14q-.3 0-.55.15a1 1 0 0 0-.4.39 1.3 1.3 0 0 0 .01 1.16q.14.25.39.4.24.13.55.13m5.13-.02v1.02h-.37v-.69h-2.6v.7h-.37v-1.03h.17q.3-.01.4-.43.1-.4.14-1.13l.04-.96h2.14v2.52zm-2.27-1.54q-.03.6-.1 1-.09.39-.28.54h1.8v-2.18h-1.39zm4.24 1.9a1.4 1.4 0 0 1-1.48-1.45q0-.42.19-.75c.19-.33.3-.4.53-.52q.33-.18.76-.18c.43 0 .53.06.75.18q.34.2.53.52c.19.32.2.47.2.75s-.07.52-.2.75q-.19.33-.53.52-.33.18-.75.18m0-.34q.3 0 .55-.14t.39-.4q.13-.25.13-.57 0-.33-.13-.58a1 1 0 0 0-.39-.4 1.1 1.1 0 0 0-1.11.01 1 1 0 0 0-.39.39 1.3 1.3 0 0 0 0 1.16q.15.25.39.4.24.13.56.13m4.16-1.16q.6.13.6.7 0 .38-.29.57-.28.2-.84.2h-1.32v-2.85h1.28q.5 0 .78.19t.28.54q0 .24-.13.4t-.36.25m-1.47-.11h.88q.33 0 .5-.13a.4.4 0 0 0 .2-.36.4.4 0 0 0-.2-.36 1 1 0 0 0-.5-.12h-.88zm.92 1.28q.38 0 .57-.12t.19-.37c0-.25-.06-.3-.18-.38q-.16-.12-.54-.12h-.96v.99zm5.36-1.17q.6.13.59.7 0 .38-.28.57-.3.2-.84.2h-1.32v-2.85h1.28q.5 0 .78.19c.28.19.28.3.28.54q0 .24-.13.4t-.36.25m-1.47-.11h.87q.34 0 .52-.13.18-.12.18-.36a.4.4 0 0 0-.19-.36 1 1 0 0 0-.5-.12h-.88zm.92 1.28q.38 0 .56-.12.2-.12.2-.37c0-.25-.06-.3-.18-.38q-.17-.12-.54-.12h-.96v.99zm5.56-2.21h-1.66v2.51h-.4v-2.85h2.06zm1.63 2.54a1.4 1.4 0 0 1-1.48-1.45q0-.42.2-.75.19-.33.52-.52.34-.18.76-.18c.42 0 .53.06.76.18a1.5 1.5 0 0 1 .72 1.26 1.5 1.5 0 0 1-.72 1.28 2 2 0 0 1-.76.18m0-.34q.3 0 .55-.14t.39-.4.14-.57q0-.33-.14-.58a1 1 0 0 0-.39-.4 1 1 0 0 0-.55-.14q-.31 0-.56.15a1 1 0 0 0-.38.39q-.14.25-.14.58 0 .31.14.58.14.25.38.4.25.13.56.13m3.81-2.56q.4 0 .74.18c.34.18.4.3.52.51a1.6 1.6 0 0 1-.01 1.52q-.18.33-.51.51a1.5 1.5 0 0 1-.74.18 1.2 1.2 0 0 1-1.1-.56v1.59h-.4v-3.91h.38v.56q.18-.27.46-.43.3-.15.66-.15m-.03 2.56q.3 0 .55-.14a1 1 0 0 0 .53-.97q0-.33-.14-.58a1 1 0 0 0-.39-.4 1 1 0 0 0-.55-.14q-.3 0-.56.15a1 1 0 0 0-.38.4q-.14.24-.14.57 0 .31.14.58.14.25.38.4.26.13.56.13m3.54-1.53q.55 0 .83.24.3.23.3.67t-.32.7q-.3.24-.88.24h-1.15v-2.86h.4v1h.82Zm1.6-1.01h.4v2.85h-.4zm-1.7 2.57q.42 0 .61-.16.21-.17.21-.49 0-.3-.2-.47-.2-.15-.61-.15l-.74-.01v1.27h.74Z"/></symbol><use xlink:href="#sprite-logo" width="142" height="42" y="127"/><view id="sprite-logo-view" viewBox="0 127 142 42"/><symbol id="sprite-mail" fill="none" viewBox="0 0 26 26"><path stroke="#2D383F" stroke-linecap="round" stroke-linejoin="round" d="M24.82 6.57v12.86c0 1.02-.76 1.84-1.69 1.84h-20.26c-.93 0-1.69-.82-1.69-1.83v-12.87m23.64 0c0-1.02-.76-1.84-1.69-1.84h-20.26c-.93 0-1.69.82-1.69 1.84m23.64 0-9.62 8.98a3.17 3.17 0 0 1-4.4 0l-9.62-8.98"/></symbol><use xlink:href="#sprite-mail" width="26" height="26" y="169"/><view id="sprite-mail-view" viewBox="0 169 26 26"/><symbol id="sprite-map" fill="none" viewBox="0 0 25 25"><path fill="#fff" d="M0 0h25v25h-25z"/><path fill="#2D383F" d="M24.17 22.28v-15.58a.46.46 0 0 0-.6-.46v.02l-2.09.65a6 6 0 0 0 .39-1.82 5.1 5.1 0 0 0-10.19 0 6 6 0 0 0 .36 1.74l-3.45-1.23h-.16l-.16.03-7.14 2.78a.5.5 0 0 0-.3.39v15.6a.46.46 0 0 0 .63.43l6.98-2.7 7.97 2.85q.15.05.3 0l7.14-2.24a.5.5 0 0 0 .32-.46m-7.4-21.35a4.17 4.17 0 0 1 4.17 4.16c0 1.81-2.72 6.82-4.17 9.27-1.45-2.47-4.16-7.48-4.16-9.27a4.17 4.17 0 0 1 4.16-4.16m6.49 21.03-6.24 1.95v-3.53a.46.46 0 0 0-.92 0v3.5l-7.2-2.58v-2.96a.46.46 0 0 0-.93 0v2.96l-6.22 2.43v-7.16l2.3-.93a.46.46 0 1 0-.35-.86l-1.95.79v-6.45l6.22-2.4v1.38a.46.46 0 0 0 .93 0v-1.4l3.55 1.27a64 64 0 0 0 3.92 7.55.46.46 0 0 0 .8 0 65 65 0 0 0 3.9-7.5l2.17-.69.02 7.6-2.35.56a.47.47 0 0 0 .1.93h.12l2.13-.52z"/><path fill="#2D383F" d="M16.76 2.4a2.69 2.69 0 1 0 0 5.39 2.69 2.69 0 0 0 0-5.39m0 4.46a1.77 1.77 0 0 1-1.75-1.77h-.02a1.76 1.76 0 1 1 1.77 1.77m-6.06 7.1v.02l-2.24-.97a.5.5 0 0 0-.36 0l-1.9.77a.46.46 0 0 0 .35.86l1.72-.7 2.06.88.18.04a.46.46 0 0 0 .19-.9m7.57 2.66a.46.46 0 0 0-.52-.32v-.04l-1.15.28-1.94-.85a.47.47 0 0 0-.37.86l2.08.92.19.04h.1l1.3-.32a.46.46 0 0 0 .3-.57"/></symbol><use xlink:href="#sprite-map" width="25" height="25" y="195"/><view id="sprite-map-view" viewBox="0 195 25 25"/><symbol id="sprite-moon" fill="none" viewBox="0 0 16 16"><path fill="#fff" d="M15.62 9.1a.6.6 0 0 0-.47.1 6 6 0 0 1-1.82 1.08q-.95.37-2.06.37a6 6 0 0 1-4.26-1.77 6 6 0 0 1-1.75-4.27q.01-1.06.32-1.99a6 6 0 0 1 .98-1.76.53.53 0 0 0-.08-.74.6.6 0 0 0-.47-.1 8.3 8.3 0 0 0-4.33 2.9 8 8 0 0 0-1.68 4.95c0 2.24.9 4.27 2.37 5.75a8 8 0 0 0 5.73 2.38 8 8 0 0 0 5-1.74 8 8 0 0 0 2.87-4.5c.1-.3-.06-.6-.35-.65m-3.13 4.28a7 7 0 0 1-4.35 1.52 7 7 0 0 1-4.97-2.07 7 7 0 0 1-2.07-4.99c0-1.62.54-3.1 1.46-4.28a7 7 0 0 1 2.35-1.97 7 7 0 0 0-.29.7 7 7 0 0 0-.39 2.33c0 1.95.8 3.74 2.07 5a7 7 0 0 0 4.99 2.08q1.29 0 2.43-.43.4-.14.78-.33a7.5 7.5 0 0 1-2 2.44"/></symbol><use xlink:href="#sprite-moon" width="16" height="16" y="220"/><view id="sprite-moon-view" viewBox="0 220 16 16"/><symbol id="sprite-mountain" fill="none" viewBox="0 0 25 25"><path fill="#fff" d="M0 0h25v25h-25z"/><path fill="#2D383F" d="m23.42 24.19-4.05-9.4-3.81-8.88a.48.48 0 0 0-.88 0l-3.4 7.9-1.34 3.1-2.93-6.75a.48.48 0 0 0-.88 0l-2.75 6.36-3.34 7.66a.48.48 0 0 0 .44.67h22.5a.48.48 0 0 0 .43-.66m-8.3-16.9 3.1 7.2h-1.09l-1.96-2.17a.48.48 0 0 0-.76.07l-.73 1.13h-1.23zm-8.54 4.24 2.45 5.66h-1.34a.5.5 0 0 0-.4.22l-.48.76-1.23-1.74a.5.5 0 0 0-.39-.2h-.63zm-5.34 12.37 2.9-6.72h.8l1.5 2.12a.5.5 0 0 0 .38.2.5.5 0 0 0 .4-.21l.73-1.14h1.49l2.48 5.73zm11.73 0-2.5-5.77 1.57-3.65h1.9a.5.5 0 0 0 .4-.23l.54-.81 1.68 1.87q.15.15.36.15h1.7l3.64 8.45zm-5.35-21.82a2.25 2.25 0 0 0-4.35.8v.26a2.25 2.25 0 0 0 .9 4.29l.03.02h3.34a2.68 2.68 0 1 0 .08-5.37m-.05 4.43h-3.34a1.3 1.3 0 1 1-.27-2.59.5.5 0 0 0 .36-.62 1.3 1.3 0 1 1 2.5-.64c.05.25.28.42.54.39h.21a1.73 1.73 0 0 1 0 3.46m16.14-3.87v-.25a2.25 2.25 0 0 0-4.35-.82 2.68 2.68 0 0 0 .1 5.36h3.34a2.25 2.25 0 0 0 .9-4.3m.37 2.32a1.3 1.3 0 0 1-1.25 1.02h-3.34a1.73 1.73 0 0 1 0-3.46h.21a.5.5 0 0 0 .52-.37 1.3 1.3 0 1 1 2.5.65.5.5 0 0 0 .36.62c.7.15 1.15.84 1 1.54"/></symbol><use xlink:href="#sprite-mountain" width="25" height="25" y="236"/><view id="sprite-mountain-view" viewBox="0 236 25 25"/><symbol id="sprite-odnoklassniki" fill="none" viewBox="0 0 9 16"><path fill="#2D383F" d="M4.5 2.42c.92 0 1.66.77 1.66 1.71s-.74 1.7-1.66 1.7-1.66-.76-1.66-1.7.74-1.71 1.66-1.71m0 5.84a4.1 4.1 0 0 0 4.01-4.13c0-2.28-1.8-4.13-4.01-4.13s-4 1.85-4 4.13 1.79 4.13 4 4.13m1.62 3.37a8 8 0 0 0 2.33-1c.55-.35.71-1.1.37-1.66a1.15 1.15 0 0 0-1.62-.39 5 5 0 0 1-5.4 0 1.15 1.15 0 0 0-1.62.39c-.34.56-.18 1.3.37 1.66q1.1.7 2.33 1l-2.24 2.3a1.24 1.24 0 0 0 0 1.71 1.16 1.16 0 0 0 1.66 0l2.2-2.26 2.2 2.26c.46.48 1.2.48 1.66 0 .46-.47.46-1.23 0-1.7z"/></symbol><use xlink:href="#sprite-odnoklassniki" width="9" height="16" y="261"/><view id="sprite-odnoklassniki-view" viewBox="0 261 9 16"/><symbol id="sprite-path" fill="none" viewBox="0 0 24 24"><path stroke="#0266C1" stroke-linecap="round" d="M19.8 9.56h-5.85a3.3 3.3 0 0 0-3.31 3.34 3.3 3.3 0 0 0 3.3 3.34h2.54c1.83 0 3.31 1.49 3.31 3.33s-1.48 3.34-3.31 3.34h-12.27m3.12-5.53c0-1.74-1.4-3.14-3.12-3.14s-3.12 1.4-3.12 3.14v.12c0 .68.22 1.36.62 1.91l2.5 3.46q0 0 0 0l2.5-3.46a3.3 3.3 0 0 0 .61-1.91zm-2.52-1.3.02.01c.38.18.65.53.75.94a1.4 1.4 0 0 1-1.36 1.7h-.03a1.4 1.4 0 0 1-1.35-1.7c.1-.41.37-.76.75-.94h.02a1.4 1.4 0 0 1 1.2 0Zm18.1-11.83c0-1.73-1.4-3.16-3.12-3.16s-3.11 1.43-3.11 3.16c0 .69.21 1.36.62 1.9l2.49 3.37q0 0 0 0l2.5-3.37a3.2 3.2 0 0 0 .62-1.9Zm-2.52-1.36.04.02a1.34 1.34 0 0 1 .46 2.06l-.01.01a1.4 1.4 0 0 1-1.05.5h-.07c-.4 0-.8-.18-1.05-.5l-.02-.01a1.34 1.34 0 0 1 .47-2.06l.04-.02a1.4 1.4 0 0 1 1.19 0Z"/></symbol><use xlink:href="#sprite-path" width="24" height="24" y="277"/><view id="sprite-path-view" viewBox="0 277 24 24"/><symbol id="sprite-phone" fill="none" viewBox="0 0 26 26"><path stroke="#2D383F" stroke-linecap="round" stroke-linejoin="round" d="M22.84 23.69a2 2 0 0 1-1.99 1.12 22 22 0 0 1-13.29-6.4 22.3 22.3 0 0 1-6.37-13.34 2 2 0 0 1 1.12-2l3.25-1.66c1.26-.64 2.78.11 3.22 1.46a22 22 0 0 0 1.53 3.57c.49.9.16 2.05-.77 2.48a2.13 2.13 0 0 0-.62 3.44l4.67 4.69a2.12 2.12 0 0 0 3.43-.62 1.9 1.9 0 0 1 2.61-.85 22 22 0 0 0 3.46 1.41c1.37.43 2.14 1.98 1.5 3.25z"/></symbol><use xlink:href="#sprite-phone" width="26" height="26" y="301"/><view id="sprite-phone-view" viewBox="0 301 26 26"/><symbol id="sprite-pin" fill="none" viewBox="0 0 26 26"><path stroke="#2D383F" stroke-linecap="round" stroke-linejoin="round" d="M21.86 9.63c0-4.67-3.96-8.45-8.86-8.45s-8.86 3.78-8.86 8.45v.5c0 1.87.6 3.7 1.75 5.21l7.1 9.47h.03l7.1-9.47a8.7 8.7 0 0 0 1.74-5.2z"/><path stroke="#2D383F" stroke-linecap="round" stroke-linejoin="round" d="M11.27 6.25a4.2 4.2 0 0 1 3.46 0 3.8 3.8 0 0 1 2.16 2.58 3.7 3.7 0 0 1-.77 3.22c-.76.9-1.9 1.43-3.12 1.43s-2.36-.52-3.12-1.43a3.7 3.7 0 0 1-.77-3.22 3.9 3.9 0 0 1 2.16-2.58"/></symbol><use xlink:href="#sprite-pin" width="26" height="26" y="327"/><view id="sprite-pin-view" viewBox="0 327 26 26"/><symbol id="sprite-pine-tree" fill="none" viewBox="0 0 25 25"><path fill="#fff" d="M0 0h25v25h-25z"/><path fill="#2D383F" d="m24.6 18.08-4.92-5.61h2.38a.5.5 0 0 0 .4-.8l-3.95-5.19h2a.5.5 0 0 0 .38-.83l-4.82-5.48a.5.5 0 0 0-.75 0l-4.83 5.48a.5.5 0 0 0 .38.83h2.03l-1.22 1.59-3.24-3.7a.5.5 0 0 0-.76 0l-4.12 4.69a.5.5 0 0 0 .38.83h1.58l-3.3 4.32a.5.5 0 0 0 .4.8h1.86l-4.08 4.68a.5.5 0 0 0 .38.83h5.54v3.5c0 .54.44.98.97.98h1.53a.97.97 0 0 0 .98-.97v-3.51h4.16v3.5c0 .55.44.98.97.98h1.53a.97.97 0 0 0 .97-.97v-5.11h6.79a.5.5 0 0 0 .37-.84m-15.8 5.92-1.47.03-.03-3.51h1.5zm5.17-4.48h-12.08l4.1-4.68a.5.5 0 0 0-.39-.84h-1.95l3.3-4.31a.5.5 0 0 0-.4-.8h-1.5l3-3.43 3.01 3.41-2.11 2.8a.5.5 0 0 0 .4.8h2.37l-4.9 5.62a.5.5 0 0 0 .37.83h6.78zm2.47 4.47-1.47.04-.03-5.11h1.5zm.03-6.08h-8.18l4.9-5.61a.5.5 0 0 0-.37-.83h-2.46l3.96-5.18a.5.5 0 0 0-.4-.8h-1.91l3.72-4.23 3.7 4.22h-1.94a.5.5 0 0 0-.4.81l3.94 5.18h-2.44a.5.5 0 0 0-.38.83l4.9 5.61z"/></symbol><use xlink:href="#sprite-pine-tree" width="25" height="25" y="353"/><view id="sprite-pine-tree-view" viewBox="0 353 25 25"/><symbol id="sprite-reddit" fill="none" viewBox="0 0 14 15"><path fill="#2D383F" d="M8.36 0c-.45 0-.87.24-1.14.6-.27.35-.42.78-.53 1.23-.17.73-.22 1.53-.23 2.26-1.27.09-2.4.49-3.36 1.1a2 2 0 0 0-1.3-.53c-.5.01-.98.24-1.34.72-.68.92-.6 2.42.2 3.31q-.1.42-.1.84c.01 3.02 2.9 5.47 6.44 5.47s6.43-2.45 6.43-5.47q0-.42-.08-.84c.79-.89.87-2.39.19-3.3a1.7 1.7 0 0 0-1.35-.73c-.44 0-.9.2-1.3.54a7 7 0 0 0-3.33-1.11c.02-.67.06-1.37.19-1.9a2 2 0 0 1 .27-.69c.1-.13.17-.18.34-.18.37 0 .41.12.63.43q.15.23.44.53a1 1 0 0 0 .84.35v-1.31c-.1 0-.11 0-.17-.07q-.09-.1-.27-.37c-.26-.35-.74-.88-1.47-.88m3.54.12c-.84 0-1.53.83-1.53 1.85s.69 1.85 1.53 1.85 1.53-.83 1.53-1.85-.68-1.85-1.53-1.85m0 .66c.55 0 .99.54.99 1.2s-.44 1.18-.99 1.18c-.54 0-.99-.53-.99-1.19s.45-1.19 1-1.19Zm-4.9 4.34c3.01 0 5.57 2.02 5.57 4.41s-2.56 4.42-5.57 4.42-5.57-2.02-5.57-4.42 2.57-4.41 5.57-4.41m-5.17.6q.22 0 .46.12a5 5 0 0 0-1.28 1.72c-.2-.5-.15-1.14.1-1.48a.9.9 0 0 1 .72-.37Zm10.34 0q.43 0 .72.36c.25.34.3.97.1 1.48a5 5 0 0 0-1.28-1.72q.24-.12.46-.13Zm-7.35 1.63c-.54 0-.99.53-.99 1.19s.45 1.19 1 1.19c.54 0 .98-.53.98-1.2 0-.65-.44-1.18-.99-1.18m4.36 0c-.55 0-.99.53-.99 1.19s.44 1.19.99 1.19c.54 0 .99-.53.99-1.2 0-.65-.45-1.18-1-1.18Zm-4.89 4.05a3 3 0 0 0 2.71 1.71 3 3 0 0 0 2.72-1.7c-.63.48-1.62.82-2.72.82s-2.08-.34-2.7-.83Z"/></symbol><use xlink:href="#sprite-reddit" width="14" height="15" y="378"/><view id="sprite-reddit-view" viewBox="0 378 14 15"/><symbol id="sprite-safety" fill="none" viewBox="0 0 24 24"><path stroke="#0266C1" d="m9.55 11.9 2.45 2.45 4.3-4.28m-4.3-8.98a18 18 0 0 1-9.4 1.95 18 18 0 0 0-.14 6.97 18 18 0 0 0 6.17 10.67 18 18 0 0 0 3.37 2.23 18 18 0 0 0 3.37-2.23 18 18 0 0 0 6.17-10.67c.42-2.33.36-4.7-.14-6.97a18 18 0 0 1-9.4-1.95Z"/></symbol><use xlink:href="#sprite-safety" width="24" height="24" y="393"/><view id="sprite-safety-view" viewBox="0 393 24 24"/><symbol id="sprite-slider-arrow" fill="none" viewBox="0 0 14 9"><path fill="#fff" d="M13.35 4.85a.5.5 0 0 0 0-.7l-3.18-3.19a.5.5 0 0 0-.7.71l2.82 2.83-2.83 2.83a.5.5 0 1 0 .71.7zm-13.35.15h13v-1h-13z"/></symbol><use xlink:href="#sprite-slider-arrow" width="14" height="9" y="417"/><view id="sprite-slider-arrow-view" viewBox="0 417 14 9"/><symbol id="sprite-star-filled" fill="none" viewBox="0 0 16 16"><path fill="#fff" d="m7.63 11.7 4.72 2.6-1.25-4.92 4.17-3.31-5.5-.43-2.14-4.64-2.14 4.64-5.49.43 4.17 3.31-1.25 4.92z"/></symbol><use xlink:href="#sprite-star-filled" width="16" height="16" y="426"/><view id="sprite-star-filled-view" viewBox="0 426 16 16"/><symbol id="sprite-star" fill="none" viewBox="0 0 16 14"><path fill="#fff" fill-rule="evenodd" d="m7.63 9.55 3.19 1.76-.84-3.31 2.68-2.13-3.54-.28-1.49-3.2-1.48 3.2-3.54.28 2.68 2.13-.84 3.3zm-4.71 3.75 1.25-4.92-4.17-3.31 5.49-.43 2.14-4.64 2.15 4.64 5.49.43-4.16 3.31 1.24 4.92-4.71-2.6z" clip-rule="evenodd"/></symbol><use xlink:href="#sprite-star" width="16" height="14" y="442"/><view id="sprite-star-view" viewBox="0 442 16 14"/><symbol id="sprite-sun" fill="none" viewBox="0 0 20 20"><path fill="#fff" d="M13.55 6.46a5 5 0 0 0-3.55-1.49 5 5 0 0 0-3.54 1.49c-.9.9-1.49 2.17-1.49 3.54a5.05 5.05 0 0 0 5.03 5.03 5 5 0 0 0 3.55-1.48c.9-.9 1.48-2.18 1.48-3.55a5 5 0 0 0-1.48-3.54m-.96 6.13a3.7 3.7 0 0 1-2.59 1.06 3.7 3.7 0 0 1-2.6-1.06 3.7 3.7 0 0 1-1.05-2.59 3.7 3.7 0 0 1 1.06-2.6 3.7 3.7 0 0 1 2.59-1.05 3.7 3.7 0 0 1 2.6 1.06 3.7 3.7 0 0 1 1.05 2.59 3.7 3.7 0 0 1-1.06 2.6m6.72-3.29h-2.03a.7.7 0 0 0-.7.69.7.7 0 0 0 .7.69h2.03a.7.7 0 0 0 .69-.69.7.7 0 0 0-.69-.69m-9.31 7.28a.7.7 0 0 0-.69.68v2.04a.7.7 0 0 0 .69.69.7.7 0 0 0 .69-.69v-2.03a.7.7 0 0 0-.69-.7m7.06-.47-1.45-1.45c-.24-.27-.69-.27-.95 0a.67.67 0 0 0 0 .95l1.45 1.45a.67.67 0 0 0 .95 0 .67.67 0 0 0 0-.95m-7.06-16.11a.7.7 0 0 0-.69.69v2.04a.7.7 0 0 0 .69.68.7.7 0 0 0 .69-.69v-2.03a.7.7 0 0 0-.69-.69m7.09 2.94a.67.67 0 0 0-.95 0l-1.46 1.45a.67.67 0 0 0 0 .95c.24.27.69.27.95 0l1.46-1.45a.67.67 0 0 0 0-.95m-14.36 6.37h-2.04a.7.7 0 0 0-.69.69c0 .37.3.69.69.69h2.04a.7.7 0 0 0 .68-.69.7.7 0 0 0-.69-.69m2.6 5.35c-.24-.27-.69-.27-.95 0l-1.46 1.45a.67.67 0 0 0 0 .95.67.67 0 0 0 .95 0l1.46-1.45a.67.67 0 0 0 0-.95m0-10.27-1.46-1.45a.67.67 0 0 0-.95 0 .67.67 0 0 0 0 .95l1.46 1.45a.67.67 0 0 0 .95 0 .67.67 0 0 0 0-.95"/></symbol><use xlink:href="#sprite-sun" width="20" height="20" y="456"/><view id="sprite-sun-view" viewBox="0 456 20 20"/><symbol id="sprite-user" fill="none" viewBox="0 0 18 20"><path stroke="#163152" stroke-linecap="square" stroke-linejoin="round" d="M15.67 19h-13.34c-.73 0-1.33-.55-1.33-1.23a4.9 4.9 0 0 1 3.43-4.58l.41-.14a12.8 12.8 0 0 1 8.32 0l.4.14a4.9 4.9 0 0 1 3.44 4.58c0 .68-.6 1.23-1.33 1.23Zm-8.7-9.6a4.8 4.8 0 0 0 4.06 0 4.2 4.2 0 0 0 2.32-2.8l.08-.31a4.1 4.1 0 0 0-.84-3.54l-.12-.14c-.82-1.01-2.1-1.61-3.47-1.61s-2.65.6-3.47 1.6l-.12.15a4.1 4.1 0 0 0-.84 3.54l.08.32a4.2 4.2 0 0 0 2.32 2.8Z"/></symbol><use xlink:href="#sprite-user" width="18" height="20" y="476"/><view id="sprite-user-view" viewBox="0 476 18 20"/><symbol id="sprite-vk" fill="none" viewBox="0 0 16 9"><path fill="#2D383F" d="M15.86 8.03c-.05-.07-.31-.64-1.6-1.81-1.33-1.23-1.15-1.03.46-3.15.99-1.3 1.38-2.08 1.26-2.42-.12-.32-.84-.24-.84-.24l-2.4.02s-.19-.03-.32.05-.21.26-.21.26-.38 1-.9 1.85c-1.06 1.79-1.5 1.88-1.67 1.77-.4-.26-.3-1.04-.3-1.6 0-1.74.27-2.46-.52-2.65-.26-.06-.46-.1-1.13-.1-.85-.02-1.58 0-2 .2-.27.13-.48.42-.35.44.16.02.52.1.71.35.25.33.24 1.07.24 1.07s.14 2.05-.33 2.3c-.33.18-.77-.18-1.73-1.8-.48-.85-.85-1.77-.85-1.77s-.08-.16-.2-.25a1 1 0 0 0-.38-.15h-2.28s-.34.02-.47.17c-.11.13 0 .4 0 .4s1.77 4.13 3.8 6.21c1.86 1.9 3.97 1.78 3.97 1.78h.95s.3-.03.44-.19c.14-.14.13-.41.13-.41s-.02-1.27.58-1.45c.59-.18 1.34 1.22 2.14 1.76.6.41 1.06.32 1.06.32l2.14-.03s1.12-.07.59-.93Z"/></symbol><use xlink:href="#sprite-vk" width="16" height="9" y="496"/><view id="sprite-vk-view" viewBox="0 496 16 9"/></svg>